<svg width="26" height="26" viewBox="0 0 40 40" fill="none" xmlns="http://www.w3.org/2000/svg"><path d="M14.5033 23.7596L8.9154 31.1512L11.6697 31.7021L11.9965 31.7675L12.0619 32.0943L12.5508 34.5389L18.0321 27.2884L14.5033 23.7596Z" stroke="black" stroke-width="1"></path><path d="M25.2262 23.7596L30.8141 31.1512L28.0598 31.7021L27.733 31.7675L27.6676 32.0943L27.1787 34.5389L21.6974 27.2884L25.2262 23.7596Z" stroke="black" stroke-width="1"></path><circle cx="20.0009" cy="17" r="10.5" fill="white" stroke="black" stroke-width="1"></circle><path d="M12.8563 22L11.0009 24.3574L12.5009 25.5L14.0009 23.5L12.8563 22Z" fill="white"></path><path d="M17.0009 18.046C17.5198 18.6314 18.1424 19.2232 18.4342 20.0014C18.6139 20.4805 18.7363 19.6189 19.0009 19.2493C20.013 17.8357 21.4264 15.5921 23.0009 15" stroke="black" stroke-width="1"></path></svg>
