<svg width="26" height="26" viewBox="0 0 41 40" fill="none" xmlns="http://www.w3.org/2000/svg"><path d="M8.50452 11H30.5045V33.5H8.50452V11Z" stroke="black" stroke-width="1"></path><mask id="mask0_1958_9286" maskUnits="userSpaceOnUse" x="14" y="5" width="12" height="8"><path d="M14.0045 5H25.0045V8.25714V13H18.4045H14.0045V5Z" fill="#D9D9D9"></path></mask><g mask="url(#mask0_1958_9286)"><path d="M23.5045 9.88889V9.89551V9.90222V9.90902V9.91591V9.92288V9.92994V9.93709V9.94432V9.95164V9.95904V9.96653V9.9741V9.98175V9.98949V9.99731V10.0052V10.0132V10.0213V10.0294V10.0376V10.046V10.0543V10.0628V10.0714V10.08V10.0887V10.0975V10.1063V10.1153V10.1243V10.1334V10.1426V10.1518V10.1611V10.1705V10.18V10.1895V10.1992V10.2089V10.2186V10.2285V10.2384V10.2483V10.2584V10.2685V10.2787V10.289V10.2993V10.3097V10.3202V10.3307V10.3414V10.352V10.3628V10.3736V10.3845V10.3954V10.4064V10.4175V10.4287V10.4399V10.4511V10.4625V10.4739V10.4853V10.4969V10.5084V10.5201V10.5318V10.5436V10.5554V10.5673V10.5793V10.5913V10.6033V10.6155V10.6277V10.6399V10.6522V10.6646V10.677V10.6895V10.702V10.7146V10.7272V10.7399V10.7527V10.7655V10.7783V10.7913V10.8042V10.8172V10.8303V10.8434V10.8566V10.8698V10.8831V10.8964V10.9098V10.9232V10.9367V10.9502V10.9638V10.9774V10.9911V11.0048V11.0185V11.0323V11.0462V11.0601V11.074V11.088V11.102V11.1161V11.1302V11.1444V11.1586V11.1728V11.1871V11.2014V11.2158V11.2302V11.2446V11.2591V11.2737V11.2882V11.3028V11.3175V11.3321V11.3469V11.3616V11.3764V11.3912V11.4061V11.421V11.4359V11.4509V11.4659V11.4809V11.496V11.5111V11.5262V11.5414V11.5566V11.5718V11.5871V11.6024V11.6177V11.6331V11.6485V11.6639V11.6793V11.6948V11.7103V11.7258V11.7414V11.7569V11.7725V11.7882V11.8038V11.8195V11.8352V11.8509V11.8667V11.8825V11.8983V11.9141V11.9299V11.9458V11.9617V11.9776V11.9935V12.0095V12.0255V12.0415V12.0575V12.0735V12.0896V12.1056V12.1217V12.1378V12.1539V12.1701V12.1862V12.2024V12.2186V12.2347V12.251V12.2672V12.2834V12.2997V12.3159V12.3322V12.3485V12.3648V12.3811V12.3974V12.4138V12.4301V12.4465V12.4628V12.4792V12.4956V12.512V12.5284V12.5448V12.5612V12.5776V12.594V12.6104V12.6269V12.6433V12.6598V12.6762V12.6927V12.7091V12.7256V12.742V12.7585V12.775V12.7914V12.8079V12.8244V12.8408V12.8573V12.8738V12.8902V12.9067V12.9232V12.9396V12.9561V12.9725V12.989V13.0054V13.0219V13.0383V13.0547V13.0712V13.0876V13.104V13.1204V13.1368V13.1532V13.1696V13.186V13.2024V13.2187V13.2351V13.2514V13.2678V13.2841V13.3004V13.3167V13.333V13.3493V13.3655V13.3818V13.398V13.4142V13.4305V13.4466V13.4628V13.479V13.4952V13.5113V13.5274V13.5435V13.5596V13.5757V13.5917V13.6077V13.6238V13.6397V13.6557V13.6717V13.6876V13.7035V13.7194V13.7353V13.7511V13.7669V13.7828V13.7985V13.8143V13.83V13.8457V13.8614V13.8771V13.8927V13.9083V13.9239V13.9394V13.955V13.9705V13.9859V14.0014V14.0168V14.0322V14.0475V14.0629V14.0781V14.0934V14.1086V14.1238V14.139V14.1542V14.1693V14.1843V14.1994V14.2144V14.2293V14.2443V14.2592V14.2741V14.2889V14.3037V14.3184V14.3332V14.3478V14.3625V14.3771V14.3917V14.4062V14.4207V14.4351V14.4495V14.4639V14.4782V14.4925V14.5068V14.521V14.5351V14.5492V14.5633V14.5773V14.5913V14.6053V14.6192V14.633V14.6468V14.6606V14.6743V14.688V14.7016V14.7152V14.7287V14.7422V14.7556V14.769V14.7823V14.7956V14.8088V14.822V14.8351V14.8482V14.8612V14.8742V14.8871V14.8999V14.9127V14.9255V14.9382V14.9508V14.9634V14.976V14.9885V15.0009V15.0132V15.0255V15.0378V15.05V15.0621V15.0742V15.0862V15.0982V15.1101V15.1219V15.1337V15.1454V15.1571V15.1686V15.1802V15.1916V15.203V15.2144V15.2257V15.2369V15.248V15.2591V15.2701V15.2811V15.292V15.3028V15.3135V15.3242V15.3348V15.3454V15.3558V15.3663V15.3766V15.3869V15.3971V15.4072V15.4172V15.4272V15.4371V15.447V15.4568V15.4665V15.4761V15.4856V15.4951V15.5H15.5045V15.499V15.4909V15.4829V15.4747V15.4666V15.4583V15.45V15.4417V15.4333V15.4248V15.4163V15.4078V15.3991V15.3905V15.3817V15.373V15.3641V15.3552V15.3463V15.3373V15.3283V15.3192V15.31V15.3008V15.2916V15.2822V15.2729V15.2635V15.254V15.2445V15.2349V15.2253V15.2157V15.206V15.1962V15.1864V15.1765V15.1666V15.1566V15.1466V15.1366V15.1265V15.1163V15.1061V15.0958V15.0855V15.0752V15.0648V15.0544V15.0439V15.0333V15.0227V15.0121V15.0014V14.9907V14.9799V14.9691V14.9582V14.9473V14.9364V14.9254V14.9143V14.9032V14.8921V14.8809V14.8697V14.8584V14.8471V14.8358V14.8244V14.8129V14.8014V14.7899V14.7783V14.7667V14.7551V14.7434V14.7316V14.7198V14.708V14.6961V14.6842V14.6723V14.6603V14.6483V14.6362V14.6241V14.6119V14.5997V14.5875V14.5752V14.5629V14.5506V14.5382V14.5257V14.5133V14.5008V14.4882V14.4756V14.463V14.4504V14.4377V14.4249V14.4121V14.3993V14.3865V14.3736V14.3607V14.3477V14.3347V14.3217V14.3086V14.2955V14.2824V14.2692V14.256V14.2428V14.2295V14.2162V14.2029V14.1895V14.1761V14.1626V14.1491V14.1356V14.1221V14.1085V14.0949V14.0812V14.0675V14.0538V14.0401V14.0263V14.0125V13.9987V13.9848V13.9709V13.957V13.943V13.929V13.915V13.9009V13.8868V13.8727V13.8586V13.8444V13.8302V13.816V13.8017V13.7874V13.7731V13.7587V13.7444V13.73V13.7155V13.7011V13.6866V13.6721V13.6575V13.6429V13.6284V13.6137V13.5991V13.5844V13.5697V13.555V13.5402V13.5254V13.5106V13.4958V13.4809V13.4661V13.4512V13.4362V13.4213V13.4063V13.3913V13.3763V13.3612V13.3462V13.3311V13.3159V13.3008V13.2856V13.2704V13.2552V13.24V13.2248V13.2095V13.1942V13.1789V13.1635V13.1482V13.1328V13.1174V13.102V13.0865V13.0711V13.0556V13.0401V13.0246V13.009V12.9935V12.9779V12.9623V12.9467V12.9311V12.9154V12.8997V12.884V12.8683V12.8526V12.8369V12.8211V12.8054V12.7896V12.7738V12.7579V12.7421V12.7262V12.7104V12.6945V12.6786V12.6627V12.6467V12.6308V12.6148V12.5988V12.5829V12.5669V12.5508V12.5348V12.5188V12.5027V12.4866V12.4705V12.4544V12.4383V12.4222V12.4061V12.3899V12.3738V12.3576V12.3414V12.3252V12.309V12.2928V12.2766V12.2603V12.2441V12.2278V12.2116V12.1953V12.179V12.1627V12.1464V12.1301V12.1137V12.0974V12.0811V12.0647V12.0484V12.032V12.0156V11.9992V11.9828V11.9664V11.95V11.9336V11.9172V11.9008V11.8843V11.8679V11.8515V11.835V11.8186V11.8021V11.7856V11.7692V11.7527V11.7362V11.7197V11.7032V11.6867V11.6702V11.6537V11.6372V11.6207V11.6042V11.5877V11.5712V11.5547V11.5381V11.5216V11.5051V11.4886V11.472V11.4555V11.439V11.4224V11.4059V11.3893V11.3728V11.3563V11.3397V11.3232V11.3066V11.2901V11.2736V11.257V11.2405V11.224V11.2074V11.1909V11.1744V11.1578V11.1413V11.1248V11.1083V11.0917V11.0752V11.0587V11.0422V11.0257V11.0092V10.9927V10.9762V10.9597V10.9432V10.9267V10.9102V10.8937V10.8773V10.8608V10.8443V10.8279V10.8114V10.795V10.7785V10.7621V10.7457V10.7292V10.7128V10.6964V10.68V10.6636V10.6472V10.6309V10.6145V10.5981V10.5818V10.5654V10.5491V10.5328V10.5164V10.5001V10.4838V10.4675V10.4513V10.435V10.4187V10.4025V10.3862V10.37V10.3538V10.3376V10.3214V10.3052V10.289V10.2728V10.2567V10.2406V10.2244V10.2083V10.1922V10.1761V10.16V10.144V10.1279V10.1119V10.0959V10.0799V10.0639V10.0479V10.0319V10.016V10V9.9841V9.96819V9.9523V9.93642V9.92056V9.90472V9.88889C15.5045 8.60123 15.7889 7.50779 16.4017 6.74508C16.9989 6.00167 17.9667 5.5 19.5045 5.5C21.0423 5.5 22.0101 6.00167 22.6074 6.74508C23.2201 7.50779 23.5045 8.60123 23.5045 9.88889Z" stroke="black" stroke-width="1"></path></g><rect x="7.00452" y="31" width="3" height="2" fill="white"></rect><mask id="mask1_1958_9286" maskUnits="userSpaceOnUse" x="12" y="17" width="14" height="12"><path d="M25.0046 17.3569V28.4827H14.0046V23.3477H19.5675L12.5675 17.3569H25.0046Z" fill="#D9D9D9"></path></mask><g mask="url(#mask1_1958_9286)"><circle cx="19.7185" cy="23.1965" r="4.78601" fill="#F7F5F6" stroke="black" stroke-width="1"></circle></g><path d="M16.0045 16.5L16.0044 20.0005L19.0043 21.5004" stroke="black" stroke-width="1"></path></svg>

